<svg id="Layer_1" data-name="Layer 1" xmlns="http://www.w3.org/2000/svg" viewBox="0 0 299.29 183.38"><defs><style>.cls-1{fill:#fff;}</style></defs><title>sb_logos_pink_black</title><path class="cls-1" d="M904.52,1066.78l1.64-1.94a11.17,11.17,0,0,0,8,3.32c3.15,0,5.23-1.68,5.23-4v-0.07c0-2.18-1.17-3.42-6.1-4.46-5.39-1.17-7.87-2.92-7.87-6.77v-0.07c0-3.69,3.25-6.4,7.71-6.4a12.24,12.24,0,0,1,8.24,2.88l-1.54,2a10.3,10.3,0,0,0-6.77-2.55c-3,0-5,1.68-5,3.79v0.07c0,2.21,1.21,3.45,6.37,4.56s7.64,3,7.64,6.63v0.07c0,4-3.35,6.64-8,6.64A13.72,13.72,0,0,1,904.52,1066.78Z" transform="translate(-904.52 -887.21)"/><path class="cls-1" d="M927.5,1046.74h2.68l8.54,12.8,8.54-12.8H950v23.46H947.3v-19l-8.54,12.57h-0.13l-8.54-12.53v19H927.5v-23.46Z" transform="translate(-904.52 -887.21)"/><path class="cls-1" d="M964.4,1046.57h2.48l10.69,23.62h-2.85L972,1064H959.2l-2.78,6.2h-2.71Zm6.53,15-5.33-12-5.36,12h10.69Z" transform="translate(-904.52 -887.21)"/><path class="cls-1" d="M980.18,1066.78l1.64-1.94a11.17,11.17,0,0,0,8,3.32c3.15,0,5.23-1.68,5.23-4v-0.07c0-2.18-1.17-3.42-6.1-4.46-5.4-1.17-7.88-2.92-7.88-6.77v-0.07c0-3.69,3.25-6.4,7.71-6.4a12.23,12.23,0,0,1,8.24,2.88l-1.54,2a10.3,10.3,0,0,0-6.77-2.55c-3,0-5,1.68-5,3.79v0.07c0,2.21,1.21,3.45,6.37,4.56s7.64,3,7.64,6.63v0.07c0,4-3.35,6.64-8,6.64A13.72,13.72,0,0,1,980.18,1066.78Z" transform="translate(-904.52 -887.21)"/><path class="cls-1" d="M1002.29,1046.74h2.65v10.42h13.54v-10.42h2.65v23.46h-2.65v-10.56h-13.54v10.56h-2.65v-23.46Z" transform="translate(-904.52 -887.21)"/><path class="cls-1" d="M1028,1046.74h2.65v23.46H1028v-23.46Z" transform="translate(-904.52 -887.21)"/><path class="cls-1" d="M1037.51,1046.74H1040l14.78,18.8v-18.8h2.58v23.46h-2.11L1040.09,1051v19.23h-2.58v-23.46Z" transform="translate(-904.52 -887.21)"/><path class="cls-1" d="M1062.07,1058.53v-0.07c0-6.43,4.73-12.13,11.76-12.13a12.36,12.36,0,0,1,8.75,3.12l-1.71,2a10,10,0,0,0-7.14-2.68c-5.19,0-8.91,4.39-8.91,9.62v0.07c0,5.6,3.59,9.75,9.28,9.75a11,11,0,0,0,6.77-2.35V1060h-7.14v-2.38h9.68V1067a14.22,14.22,0,0,1-9.42,3.59C1066.63,1070.6,1062.07,1065.23,1062.07,1058.53Z" transform="translate(-904.52 -887.21)"/><path class="cls-1" d="M1090.61,1046.74h10.89a8.47,8.47,0,0,1,6.13,2.08,5.38,5.38,0,0,1,1.61,4v0.07a5.46,5.46,0,0,1-3.08,5.06c2.71,1,4.39,2.61,4.39,5.76v0.07c0,4.29-3.49,6.43-8.78,6.43h-11.16v-23.46Zm9.78,9.48c2.28,0,3.72-.74,3.72-2.48v-0.07c0-1.54-1.21-2.41-3.38-2.41h-5.09v5h4.76Zm1.37,9.45c2.28,0,3.65-.8,3.65-2.55v-0.07c0-1.57-1.17-2.55-3.82-2.55h-6v5.16h6.13Z" transform="translate(-904.52 -887.21)"/><path class="cls-1" d="M1113.76,1058.53v-0.07a12.47,12.47,0,0,1,24.93-.07v0.07A12.47,12.47,0,0,1,1113.76,1058.53Zm19.54,0v-0.07a7.13,7.13,0,0,0-7.1-7.37,7,7,0,0,0-7,7.3v0.07a7.13,7.13,0,0,0,7.1,7.37A7,7,0,0,0,1133.3,1058.53Z" transform="translate(-904.52 -887.21)"/><path class="cls-1" d="M1146.27,1058.26l-7.84-11.53h6l4.89,7.61,5-7.61h5.86l-7.84,11.46,8.18,12h-6l-5.26-8-5.29,8h-5.86Z" transform="translate(-904.52 -887.21)"/><path class="cls-1" d="M1164.4,1046.74h17.69v4.59h-12.57v4.76h11.06v4.59h-11.06v4.93h12.73v4.59H1164.4v-23.46Z" transform="translate(-904.52 -887.21)"/><path class="cls-1" d="M1185.24,1066.78l3-3.65a10.76,10.76,0,0,0,7,2.85c2.11,0,3.38-.84,3.38-2.21v-0.07c0-1.31-.8-2-4.72-3-4.72-1.21-7.77-2.51-7.77-7.17v-0.07c0-4.26,3.42-7.07,8.21-7.07a13.58,13.58,0,0,1,8.71,3l-2.68,3.89a11,11,0,0,0-6.1-2.31c-2,0-3,.91-3,2v0.07c0,1.54,1,2,5.06,3.08,4.76,1.24,7.44,2.95,7.44,7v0.07c0,4.66-3.55,7.27-8.61,7.27A14.92,14.92,0,0,1,1185.24,1066.78Z" transform="translate(-904.52 -887.21)"/><path class="cls-1" d="M1073.82,951.68h-9.34v8.14h9.61c3.57,0,5.72-1.27,5.72-4V955.7C1079.81,953.22,1078,951.68,1073.82,951.68Z" transform="translate(-904.52 -887.21)"/><path class="cls-1" d="M1054.16,887.21l-52.67,30.62v61.25l52.67,30.62,52.67-30.62V917.84ZM1049.57,956c0,7.35-5.57,11.47-13.49,11.47a23.29,23.29,0,0,1-15.6-5.92l4.78-5.76c3.31,2.75,6.77,4.49,11,4.49,3.31,0,5.3-1.32,5.3-3.49v-0.11c0-2.06-1.26-3.12-7.4-4.7-7.4-1.9-12.18-4-12.18-11.31v-0.11c0-6.72,5.35-11.15,12.86-11.15a21.19,21.19,0,0,1,13.65,4.7l-4.2,6.13c-3.25-2.27-6.46-3.65-9.55-3.65S1030,938,1030,939.84v0.11c0,2.43,1.58,3.22,7.93,4.86,7.45,2,11.65,4.65,11.65,11.1V956Zm38.27,0.79c0,6.77-5.46,10.15-13.75,10.15H1056.6V930h17.06c4.2,0,7.5,1.16,9.61,3.28a8.53,8.53,0,0,1,2.52,6.29v0.11a8.62,8.62,0,0,1-4.83,8c4.25,1.64,6.88,4.12,6.88,9.09v0.11Z" transform="translate(-904.52 -887.21)"/><path class="cls-1" d="M1077.76,941V940.9c0-2.43-1.89-3.81-5.3-3.81h-8v7.82h7.45C1075.5,944.92,1077.76,943.76,1077.76,941Z" transform="translate(-904.52 -887.21)"/></svg>